name analog
datacolumns 19
datarows 28
range 0.0 0.0135
endheader
time	ground_force_vx	ground_force_vy	ground_force_vz	ground_force_px	ground_force_py	ground_force_pz	l_ground_force_vx	l_ground_force_vy	l_ground_force_vz	l_ground_force_px	l_ground_force_py	l_ground_force_pz	ground_torque_x	ground_torque_y	ground_torque_z	l_ground_torque_x	l_ground_torque_y	l_ground_torque_z
0.0	-0.0	-0.0	-0.0	-11.018969535827637	95.32349395751952	-503.2930603027344	-6.4098405838012695	-92.20783996582033	-456.3411865234375	-0.0	-0.0	-0.0	-0.0	-0.0	-0.0	67480.828125	-9037.39453125	-3053.71142578125
0.0005	-0.0	-0.0	-0.0	-10.016242980957031	95.63377380371094	-504.6089782714844	-6.143656730651856	-92.84687042236328	-458.7784118652344	-0.0	-0.0	-0.0	-0.0	-0.0	-0.0	67811.578125	-9399.572265625	-2844.873046875
0.001	-0.0	-0.0	-0.0	-9.499220848083496	96.05435180664062	-505.3155822753906	-5.54517126083374	-92.82609558105467	-459.051513671875	-0.0	-0.0	-0.0	-0.0	-0.0	-0.0	68059.3046875	-9889.9990234375	-2726.948974609375
0.0015	-0.0	-0.0	-0.0	-8.5177583694458	95.87926483154295	-506.46002197265625	-4.592885971069336	-93.33245086669922	-460.531005859375	-0.0	-0.0	-0.0	-0.0	-0.0	-0.0	68303.296875	-9953.3583984375	-2652.039306640625
0.002	-0.0	-0.0	-0.0	-7.476253032684326	95.80738830566406	-506.9821166992188	-4.456969738006592	-93.39869689941406	-461.5745544433594	-0.0	-0.0	-0.0	-0.0	-0.0	-0.0	68539.9453125	-10352.81640625	-2525.838623046875
0.0025	-0.0	-0.0	-0.0	-6.176779747009277	96.15047454833984	-509.4028015136719	-3.549135208129883	-93.66619873046876	-461.84515380859375	-0.0	-0.0	-0.0	-0.0	-0.0	-0.0	68901.4375	-10914.09765625	-2243.408203125
0.003	-0.0	-0.0	-0.0	-5.305825710296631	96.59178161621094	-511.4884948730469	-2.794140338897705	-93.59977722167967	-463.8489074707031	-0.0	-0.0	-0.0	-0.0	-0.0	-0.0	69542.1953125	-11467.6923828125	-2072.413330078125
0.0035	-0.0	-0.0	-0.0	-4.894724845886231	96.21395111083984	-512.6314697265625	-2.107072114944458	-94.34944915771484	-466.8157348632813	-0.0	-0.0	-0.0	-0.0	-0.0	-0.0	70113.7265625	-11646.8037109375	-1761.107666015625
0.004	-0.0	-0.0	-0.0	-3.5101547241210938	96.46508026123048	-516.9081420898438	-1.4859150648117063	-94.74706268310548	-467.6011047363281	-0.0	-0.0	-0.0	-0.0	-0.0	-0.0	70615.09375	-12397.73828125	-1753.0623779296875
0.0045000000000000005	-0.0	-0.0	-0.0	-2.5660879611968994	96.92674255371094	-518.0946655273438	-0.8868666291236877	-94.72489166259766	-471.3556518554688	-0.0	-0.0	-0.0	-0.0	-0.0	-0.0	71210.984375	-12858.2119140625	-1470.8328857421875
0.005	-0.0	-0.0	-0.0	-1.5638587474822998	96.59107208251952	-522.8104858398438	-0.2877516150474548	-95.43135833740234	-472.9232482910156	-0.0	-0.0	-0.0	-0.0	-0.0	-0.0	71630.125	-13333.279296875	-1292.6192626953125
0.0055	-0.0	-0.0	-0.0	-0.9869594573974608	97.0212631225586	-525.0735473632812	0.508793294429779	-95.3217315673828	-474.8403625488281	-0.0	-0.0	-0.0	-0.0	-0.0	-0.0	72203.546875	-13914.513671875	-1128.7735595703125
0.006	-0.0	-0.0	-0.0	0.0267203971743583	97.39282989501952	-528.0040283203125	1.0416134595870972	-95.36460876464844	-476.0663146972656	-0.0	-0.0	-0.0	-0.0	-0.0	-0.0	72552.5078125	-14495.2646484375	-965.7265625
0.006500000000000001	-0.0	-0.0	-0.0	0.0892105102539062	97.8237075805664	-529.4989013671875	1.7523572444915771	-95.69718170166016	-479.7443542480469	-0.0	-0.0	-0.0	-0.0	-0.0	-0.0	73167.4453125	-14790.5185546875	-823.5629272460938
0.007	-0.0	-0.0	-0.0	0.7821891903877258	97.9129409790039	-533.0811157226562	2.395191192626953	-95.8087921142578	-480.1751403808594	-0.0	-0.0	-0.0	-0.0	-0.0	-0.0	73322.03125	-15175.5322265625	-652.8690185546875
0.0075	-0.0	-0.0	-0.0	0.9673056602478028	97.54328155517578	-535.6921997070312	2.706541061401367	-96.16065979003906	-482.44873046875	-0.0	-0.0	-0.0	-0.0	-0.0	-0.0	73656.78125	-15463.9501953125	-489.2761840820313
0.008	-0.0	-0.0	-0.0	1.180307149887085	98.0023422241211	-536.18115234375	3.169898271560669	-96.13916015625	-481.7359924316406	-0.0	-0.0	-0.0	-0.0	-0.0	-0.0	73952.6875	-15916.8740234375	-422.9666137695313
0.0085	-0.0	-0.0	-0.0	1.4068491458892822	98.41423034667967	-537.8118286132812	4.327427387237549	-95.67391967773438	-482.9617919921875	-0.0	-0.0	-0.0	-0.0	-0.0	-0.0	74227.3203125	-16188.7666015625	-274.4820251464844
0.009000000000000001	-0.0	-0.0	-0.0	1.2694047689437866	98.39996337890624	-537.9740600585938	4.30124044418335	-95.64994049072266	-482.876708984375	-0.0	-0.0	-0.0	-0.0	-0.0	-0.0	74256.375	-16305.0419921875	-168.7318572998047
0.0095	-0.0	-0.0	-0.0	1.4069840908050537	98.06380462646484	-538.7304077148438	4.860363006591797	-95.69792175292967	-483.6595764160156	-0.0	-0.0	-0.0	-0.0	-0.0	-0.0	74593.6640625	-16390.177734375	-95.47178649902344
0.01	-0.0	-0.0	-0.0	1.7107609510421753	98.02312469482422	-538.7423095703125	5.230973243713379	-95.5213851928711	-483.5633239746094	-0.0	-0.0	-0.0	-0.0	-0.0	-0.0	74531.7890625	-16586.328125	120.60974884033205
0.0105	-0.0	-0.0	-0.0	1.009749412536621	97.35455322265624	-537.1064453125	5.49681282043457	-95.5215301513672	-482.6116333007813	-0.0	-0.0	-0.0	-0.0	-0.0	-0.0	74713.34375	-17037.009765625	179.0626220703125
0.011	-0.0	-0.0	-0.0	0.782687246799469	97.25308990478516	-538.119384765625	6.096270561218262	-95.09435272216795	-483.9377746582031	-0.0	-0.0	-0.0	-0.0	-0.0	-0.0	74659.015625	-16961.4296875	224.6206970214844
0.0115	-0.0	-0.0	-0.0	0.0604386068880558	97.24127197265624	-534.7942504882812	6.5220947265625	-95.32762908935548	-482.9603576660156	-0.0	-0.0	-0.0	-0.0	-0.0	-0.0	74404.5625	-17219.8359375	282.9332580566406
0.012	-0.0	-0.0	-0.0	-0.3166967332363128	97.00284576416016	-534.2906494140625	6.965795040130615	-94.8324203491211	-482.5275268554688	-0.0	-0.0	-0.0	-0.0	-0.0	-0.0	74772.9765625	-17481.365234375	373.5810241699219
0.0125	-0.0	-0.0	-0.0	-0.57530277967453	96.82474517822266	-532.00439453125	6.834937572479248	-94.94581604003906	-481.4801025390625	-0.0	-0.0	-0.0	-0.0	-0.0	-0.0	74630.7578125	-17693.814453125	476.5623474121094
0.013000000000000001	-0.0	-0.0	-0.0	-1.1597366333007812	96.64665985107422	-532.669677734375	7.168960094451904	-94.7945785522461	-480.3146667480469	-0.0	-0.0	-0.0	-0.0	-0.0	-0.0	74602.625	-17570.23046875	551.681396484375
0.0135	-0.0	-0.0	-0.0	-1.2989293336868286	96.3698272705078	-530.750732421875	7.54516077041626	-94.55072784423828	-480.4326171875	-0.0	-0.0	-0.0	-0.0	-0.0	-0.0	74542.2421875	-17870.708984375	536.3612060546875
